<?xml version="1.0" encoding="utf-8"?>
<!-- Generator: Adobe Illustrator 19.1.0, SVG Export Plug-In . SVG Version: 6.00 Build 0)  -->
<svg version="1.1" id="Layer_1" xmlns="http://www.w3.org/2000/svg" xmlns:xlink="http://www.w3.org/1999/xlink" x="0px" y="0px"
	 width="277px" height="163px" viewBox="57 50 277 163" enable-background="new 57 50 277 163" xml:space="preserve">
<g>
	<g>
		<g>
			<path fill="#4A4A49" d="M256.3,97.5c-2.6,1.5-3.9,2.9-3.9,2.9s1.2-0.9,4.1-1.8c1.4,6.2,8.4,8.7,18.2,8.9
				c10.1,0.2,14.8-5.2,14.8-5.2c-11.5,5.9-22.3,3.8-27.5,0.9c-2.3-1.3-4-3-4.3-5c3.3-0.9,8.2-1.8,15.1-1.8c15,0,22.3,4,22.3,4
				s-8.9-6.7-20.2-7.3c-7.6-0.4-13.4,1.6-17.3,3.6c0.3-2.1,2.1-4.4,6-6.5c8.7-4.7,16.8-2.4,21.2-0.7c5.6,2.1,14.6,8.7,19,10.1
				c4.5,1.4,6.6,0.2,6.6,0.2c-11.1,0.7-17.2-11.3-30.1-13.4C267.8,84.4,255.7,90.3,256.3,97.5z"/>
		</g>
	</g>
	<g>
		<g>
			<path fill="#4A4A49" d="M133.6,97.5c2.6,1.5,3.9,2.9,3.9,2.9s-1.2-0.9-4.1-1.8c-1.4,6.2-8.4,8.7-18.2,8.9
				c-10.1,0.2-14.8-5.2-14.8-5.2c11.5,5.9,22.3,3.8,27.5,0.9c2.3-1.3,4-3,4.3-5c-3.3-0.9-8.2-1.8-15.1-1.8c-15,0-22.3,4-22.3,4
				s8.9-6.7,20.2-7.3c7.6-0.4,13.4,1.6,17.3,3.6c-0.3-2.1-2.1-4.4-6-6.5c-8.7-4.7-16.8-2.4-21.2-0.7c-5.6,2.1-14.6,8.7-19,10.1
				c-4.5,1.4-6.6,0.2-6.6,0.2c11.1,0.7,17.2-11.3,30.1-13.4C122.2,84.4,134.3,90.3,133.6,97.5z"/>
		</g>
	</g>
	<g>
		<g>
			<g>
				<path fill="#4A4A49" d="M194.3,90.1c-3,0.2-4.9,1.6-4.9,1.6c3.5,2.1,4.8,7.1,4.8,8.5c0,1.4,0,4.2,0,4.2c0,1.9-2.1,3.7-2.1,3.7
					h4.8c0,0-1.9-1.9-1.8-3.7c0.2-2.1,0-4.1,0-4.1c0-6.3,4.6-8.6,4.6-8.6S197.3,89.9,194.3,90.1z"/>
			</g>
		</g>
		<g>
			<g>
				<path fill="#4A4A49" d="M237.7,106.9c0.3,0.3,0.6,0.5,0.8,0.8C238.5,107.7,238.2,107.4,237.7,106.9z"/>
			</g>
		</g>
		<g>
			<g>
				<path fill="#4A4A49" d="M149.9,107.7c0.3-0.3,0.6-0.5,0.8-0.8C150.2,107.4,149.9,107.7,149.9,107.7z"/>
			</g>
		</g>
		<g>
			<g>
				<path fill="#4A4A49" d="M145.3,98.7c-4.4,1.8-9.2,1.8-9.2,1.8s3.4,1.5,8.6-0.4c5.8-2.1,9.6-5.3,15-7.2c-1.7,4.3-4.5,9.5-9,14
					c1.8-1.6,6.3-5.2,13.1-7.1c2.8-0.8,5.2-1.1,7.3-1.2c0.6,2.1,1.7,4.3,3.5,6c4.6,4.2,10.1,4.2,12.2,0.4c1.5-2.7,0.1-10.7-7.4-13.5
					c0.1-0.8,0.3-1.6,0.5-2.5c0,0-0.6,0.9-1.1,2.3c-1.8-0.6-4-0.9-6.6-0.7c0,0,1.9-14.1,21.7-14.1c19.8,0,21.7,14.1,21.7,14.1
					c-2.2-0.1-4.2,0.1-5.8,0.5c-0.5-1.3-1-2.1-1-2.1c0.2,0.8,0.3,1.5,0.5,2.2c-8.2,2.5-9.7,11-8.2,13.8c2.1,3.9,7.6,3.9,12.2-0.4
					c1.8-1.7,2.9-3.9,3.5-6c2.3,0,5,0.4,8.2,1.3c6.7,1.9,11.3,5.5,13.1,7.1c-4.5-4.4-7.2-9.4-8.9-13.6c4.8,2,8.5,4.9,14,6.8
					c5.3,1.9,8.6,0.4,8.6,0.4s-4.8,0.1-9.2-1.8c-5-2.1-9.1-4.9-13.9-6.7c-1.8-5-2.1-8.7-2.1-8.7c8.1,12,18.6,10.9,20.3,6.4
					c1.6-4.1-2.8-6.9-5.7-4.6c-2.3,1.8,0.2,5.6,1.9,3.5c1.2-1.4-0.9-2.8-0.9-2.8c1.2-0.9,3.8,0.2,3.5,2.8c-0.3,3-6,5.3-12.5,0.4
					c-6.5-4.9-8.1-10.9-8.1-10.9c-0.2,5,0.8,9.7,2.1,13.5c-2.9-0.9-6.1-1.5-9.9-1.3c0,0-4.2-18.3-23.2-19c-19,0.6-23.2,19-23.2,19
					c-3.4-0.2-6.3,0.3-8.9,1c1.3-3.7,2.2-8.3,2-13.2c0,0-1.6,6-8.1,10.9c-6.5,4.9-12.2,2.6-12.5-0.4c-0.3-2.6,2.3-3.7,3.5-2.8
					c0,0-2.1,1.4-0.9,2.8c1.8,2.1,4.2-1.7,1.9-3.5c-2.9-2.3-7.3,0.5-5.7,4.6c1.7,4.5,12.2,5.6,20.3-6.4c0,0-0.3,3.5-2,8.3
					C155,93.4,150.7,96.5,145.3,98.7z M213,102.6c-3.9,4.4-8.3,3.4-9.9,0.7c-1.6-2.6-0.1-7.7,4.2-10.1c0.6-0.3,1.2-0.6,1.8-0.8
					c0.4,5.1-1.7,7.9-1.7,7.9l-0.1,0.1c-0.2-0.1-0.4-0.1-0.6-0.1c-0.8,0-1.4,0.6-1.4,1.4c0,0.8,0.6,1.4,1.4,1.4
					c0.8,0,1.4-0.6,1.4-1.4c0-0.3-0.1-0.6-0.3-0.8l0.1-0.1c1.3-1.1,3.7-2.1,7.2-2.3C214.7,99.9,214,101.3,213,102.6z M217.2,91.3
					c4.1-0.1,7.3,0.5,10.1,1.4c1.8,4.9,4,8.1,4,8.1c-5-3.5-10.4-4.1-14.5-3.8C217.4,93.9,217.2,91.3,217.2,91.3z M215.6,97.1
					c-3.7,0.4-6.1,1.4-6.1,1.4c0.9-2.5,0.9-4.7,0.5-6.4c3.1-0.9,5.8-0.7,5.8-0.7S216.2,94.1,215.6,97.1z M180.2,93.2
					c4.4,2.4,5.8,7.4,4.2,10.1c-1.6,2.6-6,3.7-9.9-0.7c-1.1-1.2-1.8-2.7-2.2-4.1c3.9,0,6.6,1.1,8,2.3l0.1,0.1
					c-0.2,0.2-0.3,0.5-0.3,0.8c0,0.8,0.6,1.4,1.4,1.4c0.8,0,1.4-0.6,1.4-1.4c0-0.8-0.6-1.4-1.4-1.4c-0.2,0-0.4,0.1-0.6,0.1l-0.1-0.1
					c0,0-1.9-2.6-1.7-7.5C179.6,92.9,179.9,93,180.2,93.2z M171.8,91.5c0,0,3.3-0.2,6.6,1c-0.3,1.6-0.3,3.7,0.6,6.1
					c0,0-2.9-1.2-7-1.5C171.4,94,171.8,91.5,171.8,91.5z M170.4,91.3c0,0-0.2,2.6,0.4,5.7c-4-0.1-9,0.6-13.7,3.9
					c0,0,2.2-3.3,4.1-8.4C163.8,91.6,166.7,91.2,170.4,91.3z"/>
			</g>
		</g>
		<g>
			<g>
				<circle fill="#4A4A49" cx="194.4" cy="81.8" r="2"/>
			</g>
		</g>
		<g>
			<g>
				<circle fill="#4A4A49" cx="200.3" cy="82.6" r="1.7"/>
			</g>
		</g>
		<g>
			<g>
				<path fill="#4A4A49" d="M204.7,85.9c0.7,0,1.3-0.6,1.3-1.3c0-0.7-0.6-1.3-1.3-1.3c-0.7,0-1.3,0.6-1.3,1.3
					C203.4,85.3,203.9,85.9,204.7,85.9z"/>
			</g>
		</g>
		<g>
			<g>
				<circle fill="#4A4A49" cx="207.8" cy="86.7" r="1.1"/>
			</g>
		</g>
		<g>
			<g>
				<circle fill="#4A4A49" cx="188" cy="82.6" r="1.7"/>
			</g>
		</g>
		<g>
			<g>
				<circle fill="#4A4A49" cx="183.6" cy="84.6" r="1.3"/>
			</g>
		</g>
		<g>
			<g>
				<circle fill="#4A4A49" cx="180.4" cy="86.7" r="1.1"/>
			</g>
		</g>
		<g>
			<g>
				<circle fill="#4A4A49" cx="220.7" cy="86.9" r="1.2"/>
			</g>
		</g>
		<g>
			<g>
				<circle fill="#4A4A49" cx="219.3" cy="82.1" r="1.6"/>
			</g>
		</g>
		<g>
			<g>
				<path fill="#4A4A49" d="M217,79.3c0.9,0,1.6-0.7,1.6-1.6c0-0.9-0.7-1.6-1.6-1.6c-0.9,0-1.6,0.7-1.6,1.6
					C215.4,78.6,216.1,79.3,217,79.3z"/>
			</g>
		</g>
		<g>
			<g>
				<path fill="#4A4A49" d="M213.5,75.2c1,0,1.8-0.8,1.8-1.8c0-1-0.8-1.8-1.8-1.8c-1,0-1.8,0.8-1.8,1.8
					C211.7,74.4,212.5,75.2,213.5,75.2z"/>
			</g>
		</g>
		<g>
			<g>
				<path fill="#4A4A49" d="M209.2,71.2c1,0,1.9-0.8,1.9-1.9c0-1-0.8-1.9-1.9-1.9c-1,0-1.9,0.8-1.9,1.9
					C207.3,70.4,208.1,71.2,209.2,71.2z"/>
			</g>
		</g>
		<g>
			<g>
				<path fill="#4A4A49" d="M199.4,66.4c0,1.3,1,2.3,2.3,2.3c1.3,0,2.3-1,2.3-2.3c0-1.3-1-2.3-2.3-2.3
					C200.4,64.1,199.4,65.2,199.4,66.4z"/>
			</g>
		</g>
		<g>
			<g>
				<circle fill="#4A4A49" cx="167" cy="86.9" r="1.2"/>
			</g>
		</g>
		<g>
			<g>
				<path fill="#4A4A49" d="M168.4,83.7c0.9,0,1.6-0.7,1.6-1.6c0-0.9-0.7-1.6-1.6-1.6c-0.9,0-1.6,0.7-1.6,1.6
					C166.8,83,167.5,83.7,168.4,83.7z"/>
			</g>
		</g>
		<g>
			<g>
				<circle fill="#4A4A49" cx="170.7" cy="77.7" r="1.6"/>
			</g>
		</g>
		<g>
			<g>
				<circle fill="#4A4A49" cx="174.2" cy="73.5" r="1.8"/>
			</g>
		</g>
		<g>
			<g>
				<path fill="#4A4A49" d="M178.6,71.2c1,0,1.9-0.8,1.9-1.9c0-1-0.8-1.9-1.9-1.9c-1,0-1.9,0.8-1.9,1.9
					C176.7,70.4,177.5,71.2,178.6,71.2z"/>
			</g>
		</g>
		<g>
			<g>
				<circle fill="#4A4A49" cx="186.1" cy="66.4" r="2.3"/>
			</g>
		</g>
		<g>
			<g>
				<circle fill="#4A4A49" cx="193.9" cy="65.5" r="2.3"/>
			</g>
		</g>
		<g>
			<g>
				<path fill="#4A4A49" d="M207.7,62.7c0,0-3.7-5.5-13.6-5.5c-9.9,0-14.8,5.6-14.8,5.6s5.6-3.7,15.5-3.7
					C203.1,59.2,207.7,62.7,207.7,62.7z"/>
			</g>
		</g>
		<g>
			<g>
				<path fill="#4A4A49" d="M193.6,55c1.4,0,2.5-1.1,2.5-2.5c0-1.4-1.1-2.5-2.5-2.5c-1.4,0-2.5,1.1-2.5,2.5
					C191.1,53.9,192.2,55,193.6,55z M193.6,51.3c0.7,0,1.2,0.6,1.2,1.2s-0.6,1.2-1.2,1.2c-0.7,0-1.2-0.6-1.2-1.2
					S192.9,51.3,193.6,51.3z"/>
			</g>
		</g>
	</g>
</g>
<g>
	<g>
		<g>
			<path fill="#4A4A49" d="M172.8,200.3c0.2-0.2,0.2-0.3,0.2-0.3S172.9,200.1,172.8,200.3z"/>
		</g>
	</g>
	<g>
		<g>
			<path fill="#4A4A49" d="M172.8,200.3c-0.8,0.9-4.1,3.2-15.4,2.8c-12.7-0.4-17.7-6.1-18.1-9.4l29,0.9v0.5c0,1.3,1.1,2.4,2.4,2.4
				s2.4-1.1,2.4-2.4v-0.4c0.7,0,1.9-0.1,4.1-0.1c5-0.2,4.7-1.5,4.7-1.5c0.2-2.3-6-2-6.8-2c-0.1,0-0.8,0-2,0v-0.1
				c0-1.3-1.1-2.4-2.4-2.4s-2.4,1.1-2.4,2.4v0.2c-7,0.2-18.4,0.4-28.7,0.6c1-2.6,4.3-4.7,9.8-4.7c6.2,0,9,2.3,9,2.3
				c-4.7-5.3-18.5-3.4-20.1,2.4c-1.9,0-3.7,0.1-5.5,0.1c-2-0.3-4.3-0.7-5.4-1.1c-2.3-0.8-1.6-1.6-0.7-1.8c0,0,0.5-1.6-1.3-1.6
				c-1.8,0-2.7,2.7,1.3,3.9c0.8,0.3,1.7,0.5,2.5,0.7c-4.6,0.1-8.4,0.2-10.5,0.2c-0.3-0.7-1-1.3-1.8-1.3c-1.1,0-2,0.9-2,2
				c0,1.1,0.9,2,2,2c1.1,0,1.9-0.8,1.9-1.9l13.3,0.4c-1.6,0.3-3.6,0.8-5.4,1.3c-4,1.3-3.1,3.9-1.3,3.9c1.8,0,1.3-1.6,1.3-1.6
				c-1-0.2-1.6-1,0.7-1.8c2.3-0.8,9.3-1.6,9.3-1.6l-0.2-0.1l1.7,0.1c0.6,6.5,7.6,10.1,19.2,11.1
				C167.6,205.5,171.8,201.4,172.8,200.3z"/>
		</g>
	</g>
	<g>
		<g>
			<path fill="#4A4A49" d="M272.9,191c-0.8,0-1.5,0.5-1.8,1.3c-2.1,0-5.8-0.1-10.5-0.2c0.8-0.2,1.7-0.4,2.5-0.7
				c4-1.3,3.1-3.9,1.3-3.9c-1.8,0-1.3,1.6-1.3,1.6c1,0.2,1.6,1-0.7,1.8c-1.1,0.4-3.4,0.8-5.4,1.1c-1.8,0-3.6-0.1-5.5-0.1
				c-1.5-5.8-15.3-7.8-20.1-2.4c0,0,2.8-2.3,9-2.3c5.5,0,8.8,2.1,9.8,4.7c-10.3-0.2-21.7-0.5-28.7-0.6v-0.2c0-1.3-1.1-2.4-2.4-2.4
				c-1.3,0-2.4,1.1-2.4,2.4v0.1c-1.2,0-1.9,0-2,0c-0.8,0-7-0.3-6.8,2c0,0-0.3,1.3,4.7,1.5c2.1,0.1,3.4,0.1,4.1,0.1v0.4
				c0,1.3,1.1,2.4,2.4,2.4c1.3,0,2.4-1.1,2.4-2.4v-0.5l29-0.9c-0.4,3.3-5.4,9-18.1,9.4c-11.3,0.4-14.6-1.9-15.4-2.8
				c1,1.2,5.2,5.3,15.4,4.4c11.6-1,18.6-4.6,19.2-11.1l1.7-0.1l-0.2,0.1c0,0,7,0.8,9.3,1.6c2.3,0.8,1.6,1.6,0.7,1.8
				c0,0-0.5,1.6,1.3,1.6c1.8,0,2.7-2.6-1.3-3.9c-1.8-0.6-3.9-1-5.4-1.3L271,193c0,1,0.9,1.9,1.9,1.9c1.1,0,2-0.9,2-2
				C274.9,191.9,274,191,272.9,191z"/>
		</g>
	</g>
	<g>
		<g>
			<path fill="#4A4A49" d="M217.2,200.3c-0.2-0.2-0.2-0.3-0.2-0.3S217,200.1,217.2,200.3z"/>
		</g>
	</g>
	<g>
		<g>
			<path fill="#4A4A49" d="M194.7,186.4c-1.5,6.4-12.2,6.7-12.2,6.7c9.6,0.5,12.5,5.9,12.5,5.9c2.6-5.2,11.1-5.7,11.1-5.7
				C196,193,194.7,186.4,194.7,186.4z M195,195.4c-1.1,0-2-0.9-2-2c0-1.1,0.9-2,2-2c1.1,0,2,0.9,2,2
				C197,194.5,196.1,195.4,195,195.4z"/>
		</g>
	</g>
	<g>
		<g>
			<circle fill="#4A4A49" cx="194.7" cy="211.5" r="1.5"/>
		</g>
	</g>
	<g>
		<g>
			<path fill="#4A4A49" d="M175.8,200.6c-5.7,2.4-4.7,9.6,2.3,9.6c7,0,8.1-4.4,8.1-4.4s-2.1,3.7-7.5,3.4c-8.3-0.5-6.4-8.3,2.3-8.3
				c8.6,0,12.1,8.5,12.1,8.5C190.3,199.2,181.5,198.2,175.8,200.6z"/>
		</g>
	</g>
	<g>
		<g>
			<path fill="#4A4A49" d="M213.9,200.6c-5.7-2.4-14.5-1.5-17.3,8.8c0,0,3.4-8.5,12.1-8.5s10.6,7.8,2.3,8.3
				c-5.4,0.3-7.5-3.4-7.5-3.4s1.1,4.4,8.1,4.4C218.7,210.2,219.6,203.1,213.9,200.6z"/>
		</g>
	</g>
	<g>
		<g>
			<path fill="#4A4A49" d="M194.5,200.5c-3.3,0.2,0.2,8.3,0.2,8.3S197.8,200.3,194.5,200.5z"/>
		</g>
	</g>
</g>
<line fill="none" stroke="#4A4A49" stroke-miterlimit="10" x1="57" y1="118.2" x2="334" y2="118.2" stroke-width="1"/>
<line fill="none" stroke="#4A4A49" stroke-miterlimit="10" x1="57" y1="176.2" x2="334" y2="176.2" stroke-width="1"/>
</svg>
